<svg width="908" height="79" viewBox="0 0 908 79" fill="none" xmlns="http://www.w3.org/2000/svg">
<g clip-path="url(#clip0_363_3658)">
<path d="M237.26 65.8429L907.909 67.8359" stroke="black" stroke-width="0.996507"/>
<path d="M141.448 39.152L140.555 33.7082L139.77 39.152L134.316 40.125L139.77 41.0003L140.555 46.1854L141.448 41.0003L146.616 40.125L141.448 39.152Z" fill="black"/>
<path d="M14.3413 10.9509L12.5575 0.073288L10.9885 10.9509L0.0917969 12.8952L10.9885 14.6442L12.5575 25.0047L14.3413 14.6442L24.667 12.8952L14.3413 10.9509Z" fill="black"/>
<path d="M218.96 63.9545L217.177 53.0768L215.608 63.9545L204.711 65.8987L215.608 67.6477L217.177 78.0082L218.96 67.6477L229.287 65.8987L218.96 63.9545Z" fill="black"/>
<path d="M19.0321 32.8651C23.8027 32.8651 27.6765 32.6621 30.6538 32.2562L29.7912 31.2412C27.3212 31.8164 24.5978 32.2393 21.6203 32.51C21.4173 31.2243 21.0959 29.9218 20.6562 28.6022C20.2502 27.2828 19.6581 25.608 18.88 23.578C23.3459 23.578 27.1182 23.3073 30.1972 22.766C33.3097 22.1908 36.2195 21.2943 38.926 20.0761H52.3242C51.7828 20.5498 51.2076 21.0235 50.5986 21.4972H58.5155L59.6828 27.6379C58.4311 28.7206 56.6717 29.8878 54.4049 31.1397C52.1718 32.3577 50.4125 33.2713 49.1268 33.8803C45.2022 35.7071 40.973 37.1958 36.4394 38.3462C31.9057 39.4628 26.7123 40.3931 20.8592 41.1375C20.081 38.8368 18.8968 36.0794 17.3066 32.8651H19.0321ZM38.0126 28.7037C38.5201 29.1774 39.1122 29.6342 39.7888 30.0739C41.4805 29.465 43.0199 28.7375 44.4071 27.8917H39.9918C39.5181 28.1285 38.8585 28.3992 38.0126 28.7037ZM64.7578 35.4535L67.549 44.2332C64.098 47.5489 60.1227 50.3739 55.6228 52.7084C51.2584 54.9415 46.3863 56.5147 41.0069 57.4282C35.6612 58.3078 29.3682 58.8322 22.128 59.0014C21.4173 55.2459 20.1656 51.7781 18.3723 48.5976C20.4701 48.8346 22.8553 49.0207 25.5281 49.1559C24.7839 47.8703 23.9888 46.703 23.1429 45.6541C22.3309 44.5714 21.3158 43.4888 20.0979 42.4061C27.4058 41.5942 34.2063 40.207 40.4993 38.2447C46.8262 36.2823 52.0872 33.9309 56.2826 31.1904L63.4384 32.916C63.0662 33.2542 62.085 34.1001 60.4949 35.4535H64.7578ZM49.6851 42.5076L47.7566 43.4719C48.3655 44.1148 49.0085 44.7069 49.6851 45.2481C51.2415 44.6392 52.7977 43.7257 54.3541 42.5076H49.6851ZM40.5501 47.938C40.1779 47.5658 39.8397 47.1767 39.5352 46.7707C36.5577 47.7519 33.7157 48.547 31.0091 49.1559C34.3249 49.0207 37.5051 48.6147 40.5501 47.938ZM117.284 42.3555C117.453 45.2313 117.538 47.109 117.538 47.9887C117.538 49.3758 117.419 50.9491 117.183 52.7084C116.641 56.9376 114.814 59.0522 111.701 59.0522C110.247 59.0522 108.606 58.5446 106.779 57.5296C104.986 56.5147 103.26 54.8737 101.602 52.6069C98.4897 55.3474 95.3092 57.5634 92.0612 59.2552C90.2005 58.0711 88.4918 57.0559 86.9355 56.2102C85.4131 55.3643 83.5353 54.5015 81.3023 53.6219C83.9075 52.5731 86.4788 51.4228 89.0164 50.1709C87.4261 50.78 85.2947 51.2198 82.6219 51.4905C82.3512 49.4266 81.9959 47.7011 81.5561 46.3139C81.3869 51.2535 80.947 55.5673 80.2365 59.2552C75.5676 57.6989 71.4568 56.6331 67.9043 56.0579C68.6486 54.1295 69.1731 52.1332 69.4776 50.0694C69.7821 47.9718 69.9682 45.5188 70.0359 42.7108C70.1374 39.8688 70.188 35.4873 70.188 29.5665V21.3958H93.3808V19.8225H103.785L103.683 21.4464H106.17L107.895 18.8582C109.587 19.4334 111.38 20.2962 113.275 21.4464H116.777L116.624 30.8859H110.027C111.955 31.3934 114.138 31.8671 116.574 32.307C115.491 34.8445 113.985 37.5849 112.057 40.5284C113.681 41.3405 115.423 41.9495 117.284 42.3555ZM90.8433 49.1559C93.3808 47.7688 95.5461 46.2801 97.3393 44.69C95.7491 40.6638 94.6327 36.0625 93.9898 30.8859H81.6576V32.307H93.8376V41.5435C93.8376 43.4381 93.6007 44.9945 93.127 46.2124C92.6533 47.4303 91.8922 48.4115 90.8433 49.1559ZM104.698 35.0475C105.138 34.2016 105.798 32.8145 106.677 30.8859H104.038C104.174 32.0701 104.394 33.4572 104.698 35.0475ZM83.8398 41.9495C83.9075 41.848 83.992 41.7296 84.0935 41.5942C84.195 41.4249 84.2627 41.2051 84.2966 40.9344C84.3304 40.6299 84.3473 40.2408 84.3473 39.7673H81.6576C81.6576 41.0529 81.6407 42.0001 81.6068 42.6091C82.8924 42.5076 83.6368 42.2877 83.8398 41.9495ZM111.042 46.9229C111.109 46.9229 111.143 46.7707 111.143 46.4662C111.143 45.5526 110.991 44.2163 110.687 42.457C110.314 42.9982 109.722 43.7764 108.91 44.7915C109.79 46.0094 110.5 46.7199 111.042 46.9229ZM136.823 21.4972C143.183 21.4972 148.208 22.2754 151.896 23.8318C155.583 25.3542 158.155 27.4858 159.609 30.2263C161.098 32.9329 161.842 36.2655 161.842 40.2239C161.842 43.9794 160.997 47.2613 159.305 50.0694C157.613 52.8776 155.076 55.0598 151.693 56.6162C148.309 58.1386 144.148 58.8999 139.208 58.8999C136.197 58.8999 133.135 58.8999 130.022 58.8999C126.91 58.8999 123.763 58.883 120.583 58.8493C120.853 52.184 120.989 45.9757 120.989 40.2239C120.989 34.4046 120.853 28.3315 120.583 22.0047C124.609 21.6665 130.022 21.4972 136.823 21.4972ZM140.629 48.8006C143.775 48.8006 145.873 48.0395 146.922 46.5169C147.971 44.9945 148.495 42.8967 148.495 40.2239C148.495 37.6526 147.937 35.5719 146.82 33.9817C145.738 32.3916 143.674 31.5965 140.629 31.5965C137.347 31.5965 134.894 31.698 133.27 31.901V48.8006H140.629ZM194.882 58.8999C194.239 56.9713 193.375 54.5524 192.293 51.6426H176.104L173.566 58.8999H160.828L175.038 22.0556H193.714L208.025 58.8999H194.882ZM189.4 43.7257C188.115 40.1733 186.795 36.6208 185.442 33.0683L184.224 29.7695C183.04 32.8482 181.297 37.5005 178.996 43.7257H189.4Z" fill="black"/>
</g>
<defs>
<clipPath id="clip0_363_3658">
<rect width="908" height="78.0724" fill="white"/>
</clipPath>
</defs>
</svg>
