<svg width="891" height="34" viewBox="0 0 891 34" fill="none" xmlns="http://www.w3.org/2000/svg">
<g clip-path="url(#clip0_363_3783)">
<path d="M458.859 17.0505L458.467 14.6753L458.123 17.0505L455.732 17.475L458.123 17.857L458.467 20.1193L458.859 17.857L461.124 17.475L458.859 17.0505Z" fill="black"/>
<path d="M403.136 4.746L402.354 0L401.666 4.746L396.889 5.59429L401.666 6.3574L402.354 10.8778L403.136 6.3574L407.662 5.59429L403.136 4.746Z" fill="black"/>
<path d="M492.841 27.872L492.059 23.126L491.371 27.872L486.594 28.7203L491.371 29.4834L492.059 34.0038L492.841 29.4834L497.367 28.7203L492.841 27.872Z" fill="black"/>
<path d="M405.562 14.6409C407.643 14.6409 409.333 14.5523 410.632 14.3751L410.256 13.9323C409.178 14.1832 407.99 14.3678 406.691 14.4859C406.602 13.9249 406.462 13.3566 406.27 12.7809C406.093 12.2052 405.835 11.4745 405.495 10.5888C407.444 10.5888 409.09 10.4707 410.433 10.2345C411.791 9.98357 413.061 9.59239 414.242 9.06096H420.087C419.851 9.26763 419.6 9.47429 419.334 9.68096H422.789L423.298 12.3602C422.752 12.8325 421.984 13.3418 420.995 13.888C420.021 14.4194 419.253 14.818 418.692 15.0837C416.98 15.8808 415.135 16.5304 413.157 17.0323C411.179 17.5194 408.913 17.9253 406.359 18.2501C406.019 17.2463 405.503 16.0432 404.809 14.6409H405.562ZM413.843 12.8252C414.065 13.0318 414.323 13.2311 414.618 13.423C415.356 13.1573 416.028 12.8399 416.633 12.4709H414.707C414.5 12.5742 414.212 12.6923 413.843 12.8252ZM425.512 15.7701L426.73 19.6008C425.224 21.0474 423.49 22.28 421.527 23.2986C419.622 24.2729 417.497 24.9593 415.15 25.3579C412.817 25.7417 410.071 25.9705 406.912 26.0443C406.602 24.4057 406.056 22.8927 405.274 21.5051C406.189 21.6084 407.23 21.6896 408.396 21.7486C408.071 21.1877 407.724 20.6784 407.355 20.2208C407.001 19.7484 406.558 19.276 406.027 18.8037C409.215 18.4494 412.182 17.8441 414.928 16.988C417.689 16.1318 419.984 15.1058 421.814 13.9102L424.937 14.663C424.774 14.8106 424.346 15.1797 423.652 15.7701H425.512ZM418.936 18.8479L418.094 19.2687C418.36 19.5491 418.641 19.8075 418.936 20.0436C419.615 19.7779 420.294 19.3794 420.973 18.8479H418.936ZM414.95 21.2172C414.788 21.0548 414.64 20.8851 414.507 20.7079C413.208 21.136 411.968 21.4829 410.787 21.7486C412.234 21.6896 413.622 21.5124 414.95 21.2172ZM448.43 18.7815C448.504 20.0363 448.541 20.8555 448.541 21.2393C448.541 21.8446 448.489 22.531 448.386 23.2986C448.149 25.1438 447.352 26.0664 445.994 26.0664C445.359 26.0664 444.643 25.845 443.846 25.4022C443.064 24.9593 442.311 24.2434 441.588 23.2543C440.23 24.45 438.842 25.4169 437.425 26.155C436.613 25.6383 435.868 25.1955 435.189 24.8264C434.524 24.4574 433.705 24.081 432.731 23.6972C433.867 23.2396 434.989 22.7377 436.096 22.1915C435.403 22.4572 434.473 22.6491 433.306 22.7672C433.188 21.8667 433.033 21.1139 432.841 20.5086C432.768 22.6639 432.576 24.546 432.266 26.155C430.229 25.476 428.435 25.011 426.885 24.76C427.21 23.9186 427.439 23.0477 427.571 22.1472C427.704 21.232 427.786 20.1617 427.815 18.9365C427.859 17.6965 427.881 15.7849 427.881 13.2016V9.63667H438.001V8.95025H442.54L442.496 9.65881H443.581L444.333 8.52954C445.072 8.78049 445.854 9.15692 446.681 9.65881H448.208L448.142 13.7773H445.263C446.105 13.9987 447.057 14.2054 448.12 14.3973C447.647 15.5044 446.991 16.7001 446.149 17.9844C446.858 18.3387 447.618 18.6044 448.43 18.7815ZM436.894 21.7486C438.001 21.1434 438.945 20.4939 439.728 19.8001C439.034 18.0434 438.547 16.0358 438.266 13.7773H432.886V14.3973H438.2V18.4272C438.2 19.2539 438.097 19.9329 437.89 20.4644C437.683 20.9958 437.351 21.4239 436.894 21.7486ZM442.938 15.593C443.13 15.2239 443.418 14.6187 443.802 13.7773H442.651C442.71 14.294 442.806 14.8992 442.938 15.593ZM433.838 18.6044C433.867 18.5601 433.904 18.5084 433.949 18.4494C433.993 18.3756 434.022 18.2796 434.037 18.1615C434.052 18.0287 434.059 17.8589 434.059 17.6522H432.886C432.886 18.2132 432.878 18.6265 432.864 18.8922C433.425 18.8479 433.749 18.752 433.838 18.6044ZM445.706 20.7744C445.736 20.7744 445.751 20.7079 445.751 20.5751C445.751 20.1765 445.684 19.5934 445.551 18.8258C445.389 19.062 445.131 19.4015 444.776 19.8444C445.16 20.3758 445.47 20.6858 445.706 20.7744ZM456.955 9.68096C459.73 9.68096 461.922 10.0204 463.531 10.6995C465.14 11.3638 466.262 12.2937 466.897 13.4894C467.546 14.6704 467.871 16.1244 467.871 17.8515C467.871 19.4901 467.502 20.922 466.764 22.1472C466.026 23.3724 464.919 24.3245 463.442 25.0036C461.966 25.6679 460.151 26 457.995 26C456.682 26 455.346 26 453.988 26C452.63 26 451.257 25.9926 449.869 25.9779C449.987 23.0698 450.046 20.361 450.046 17.8515C450.046 15.3125 449.987 12.6628 449.869 9.90238C451.626 9.75476 453.988 9.68096 456.955 9.68096ZM458.615 21.5936C459.988 21.5936 460.903 21.2615 461.361 20.5972C461.819 19.9329 462.047 19.0177 462.047 17.8515C462.047 16.7296 461.804 15.8218 461.317 15.128C460.844 14.4342 459.944 14.0873 458.615 14.0873C457.184 14.0873 456.113 14.1316 455.405 14.2201V21.5936H458.615ZM482.286 26C482.006 25.1586 481.629 24.1031 481.157 22.8336H474.093L472.986 26H467.428L473.628 9.92453H481.777L488.021 26H482.286ZM479.895 19.3794C479.334 17.8294 478.758 16.2794 478.167 14.7294L477.636 13.2902C477.119 14.6335 476.359 16.6632 475.355 19.3794H479.895Z" fill="black"/>
<path d="M0 17H388.851" stroke="black"/>
<path d="M501.387 17H890.237" stroke="black"/>
</g>
<defs>
<clipPath id="clip0_363_3783">
<rect width="891" height="34" fill="white"/>
</clipPath>
</defs>
</svg>
