<svg width="300" height="70" viewBox="0 0 300 70" fill="none" xmlns="http://www.w3.org/2000/svg">
<path d="M2.20818 26.11C6.74721 26.11 10.4171 25.8686 13.2661 25.3857L12.4452 24.2268C10.0791 24.9028 7.47152 25.3857 4.67084 25.6754C4.47769 24.2268 4.13968 22.7782 3.75338 21.233C3.36708 19.7361 2.78763 17.8046 2.06332 15.4868C6.31262 15.4868 9.88589 15.197 12.8315 14.5693C15.777 13.9416 18.5294 12.9275 21.1369 11.4789H33.8848C33.3537 12.0584 32.8225 12.5895 32.243 13.1207H39.7759L40.8865 20.1224C39.6793 21.3778 37.9893 22.7299 35.8646 24.1302C33.74 25.5306 32.0499 26.5929 30.8427 27.2689C27.0763 29.3936 23.0684 31.0836 18.7708 32.3391C14.425 33.6429 9.49959 34.7052 3.94653 35.5261C3.17393 32.9186 2.06332 29.7799 0.566406 26.11H2.20818ZM21.9578 22.923C23.5513 22.247 24.9999 21.3778 26.352 20.4121H22.151C21.6681 20.7018 21.0403 21.0398 20.2677 21.3296C20.7506 21.909 21.2818 22.4402 21.9578 22.923ZM45.7153 29.0556L48.3711 39.0994C45.0875 42.8658 41.2728 46.1011 37.0235 48.7569C32.8708 51.3161 28.2352 53.1027 23.1167 54.1168C17.9982 55.1791 12.0106 55.7586 5.15372 55.9517C4.47769 51.7024 3.2705 47.7428 1.58044 44.073C3.56023 44.3627 5.82974 44.5559 8.38898 44.7007C7.66467 43.2521 6.89207 41.9 6.11947 40.6929C5.34687 39.4857 4.38112 38.2302 3.22222 36.9747C10.1756 36.1055 16.6462 34.5121 22.6338 32.2425C28.6215 30.0213 33.6434 27.3172 37.6513 24.1785L44.4598 26.1583C44.0735 26.5446 43.156 27.5104 41.6591 29.0556H45.7153ZM31.3739 37.1196L29.5389 38.2302C30.1184 38.9545 30.6978 39.6305 31.3739 40.2583C32.8225 39.5822 34.3194 38.5199 35.8163 37.1196H31.3739ZM21.7164 41.9966C18.8674 43.1072 16.1633 44.0247 13.6041 44.7007C16.7428 44.5559 19.7849 44.073 22.6821 43.3004C22.2958 42.9141 22.0061 42.4795 21.7164 41.9966ZM95.9343 43.4452C95.9343 45.0387 95.7894 46.8254 95.5963 48.8534C95.0651 53.6822 93.3268 56.0966 90.3812 56.0966C88.9809 56.0966 87.4357 55.5171 85.6973 54.3582C83.959 53.1993 82.3172 51.3161 80.772 48.7086C77.7782 51.8956 74.7844 54.4065 71.694 56.338C69.9073 54.986 68.2655 53.8271 66.8169 52.8613C65.3683 51.8956 63.5816 50.9298 61.457 49.8675C63.9197 48.7086 66.3823 47.4048 68.7967 45.9562C67.2515 46.6322 65.2234 47.1634 62.7125 47.4531C62.4227 45.1353 62.0847 43.1555 61.6984 41.562C61.5053 47.2117 61.119 52.137 60.443 56.338C56.0005 54.5514 52.0892 53.3442 48.7091 52.6682C49.3851 50.4952 49.9163 48.2257 50.206 45.8113C50.4957 43.4452 50.6406 40.6446 50.7372 37.4093C50.8337 34.2223 50.882 29.2004 50.882 22.4402V13.0724H72.9494V11.2858H82.8484L82.7518 13.169H85.1179L86.7597 10.1751C88.3531 10.8512 90.0432 11.8652 91.8781 13.169H95.21L95.0651 23.9371H88.7877C90.6227 24.5165 92.699 25.0477 95.0168 25.5306C93.9545 28.4278 92.5542 31.5665 90.7192 34.9466C92.2644 35.9124 93.9062 36.5884 95.6929 37.023C95.8377 40.3066 95.9343 42.4795 95.9343 43.4452ZM76.7159 39.6788C75.1707 35.0915 74.1083 29.8282 73.5289 23.9371H61.795V25.5306H73.384V36.1055C73.384 38.2785 73.1426 40.0651 72.708 41.4172C72.2251 42.8175 71.5008 43.9281 70.5351 44.7973C72.9494 43.2521 74.9775 41.5137 76.7159 39.6788ZM85.6008 23.9371H83.0898C83.1864 25.2891 83.4278 26.8826 83.7175 28.6693C84.1038 27.7035 84.7316 26.1583 85.6008 23.9371ZM64.1128 36.1538C64.2094 35.9607 64.2577 35.7192 64.306 35.3812C64.306 35.0915 64.3542 34.6569 64.3542 34.0775H61.795C61.795 35.5261 61.7467 36.6367 61.7467 37.3127C62.9539 37.2162 63.6782 36.9264 63.8714 36.5401C63.9197 36.4436 64.0162 36.347 64.1128 36.1538ZM89.8501 41.7069C89.8501 40.6929 89.7052 39.1477 89.4155 37.1196C89.0292 37.7956 88.498 38.6648 87.7254 39.8237C88.5463 41.224 89.2223 42.0449 89.7535 42.2381C89.8018 42.2381 89.8501 42.0932 89.8501 41.7069ZM128.625 15.6316C132.102 17.37 134.565 19.8326 135.965 22.923C137.365 26.0617 138.09 29.8765 138.09 34.3672C138.09 38.6648 137.269 42.4312 135.675 45.6182C134.033 48.8052 131.619 51.3161 128.432 53.0545C125.197 54.8411 121.237 55.7103 116.553 55.7103H107.813C104.819 55.7103 101.826 55.7103 98.8315 55.6137C99.073 48.0326 99.2178 40.9343 99.2178 34.3672C99.2178 27.7518 99.073 20.7984 98.8315 13.5553C102.647 13.169 107.813 12.9758 114.284 12.9758C120.32 12.9758 125.1 13.8933 128.625 15.6316ZM117.905 44.1696C120.899 44.1696 122.879 43.3004 123.893 41.562C124.859 39.8237 125.39 37.4576 125.39 34.3672C125.39 31.4699 124.859 29.1038 123.796 27.2689C122.734 25.434 120.803 24.5165 117.905 24.5165C114.767 24.5165 112.449 24.6614 110.904 24.8545V44.1696H117.905ZM169.525 55.662C168.897 53.4408 168.077 50.6884 167.062 47.3565H151.659L149.244 55.662H137.124L150.645 13.5553H168.415L182.032 55.662H169.525ZM164.31 38.3268C163.055 34.2706 161.799 30.2145 160.544 26.1583L159.385 22.3919C158.226 25.9169 156.584 31.2285 154.411 38.3268H164.31Z" fill="black"/>
<path d="M198.159 56H193.83V44.7496H198.115C199.272 44.7496 200.272 44.9748 201.114 45.4252C201.96 45.872 202.612 46.5166 203.07 47.3589C203.531 48.1976 203.762 49.2029 203.762 50.3748C203.762 51.5467 203.533 52.5538 203.076 53.3961C202.618 54.2348 201.97 54.8794 201.131 55.3298C200.292 55.7766 199.302 56 198.159 56ZM196.884 53.4071H198.049C198.606 53.4071 199.08 53.3174 199.472 53.1379C199.867 52.9585 200.168 52.649 200.373 52.2096C200.582 51.7701 200.686 51.1585 200.686 50.3748C200.686 49.5911 200.58 48.9795 200.367 48.54C200.159 48.1005 199.851 47.7911 199.444 47.6116C199.042 47.4322 198.547 47.3424 197.961 47.3424H196.884V53.4071ZM207.57 56.1318C207.032 56.1318 206.556 56.0439 206.142 55.8682C205.732 55.6887 205.41 55.4177 205.175 55.0551C204.941 54.6926 204.824 54.2311 204.824 53.6708C204.824 53.2094 204.903 52.8157 205.06 52.4897C205.217 52.1601 205.437 51.891 205.719 51.6822C206.001 51.4735 206.329 51.3141 206.703 51.2043C207.08 51.0944 207.486 51.023 207.922 50.99C208.394 50.9534 208.774 50.9095 209.059 50.8582C209.349 50.8033 209.557 50.7282 209.685 50.633C209.814 50.5341 209.878 50.4041 209.878 50.2429V50.221C209.878 50.0012 209.793 49.8328 209.625 49.7156C209.457 49.5984 209.24 49.5398 208.977 49.5398C208.687 49.5398 208.451 49.6039 208.268 49.7321C208.089 49.8566 207.981 50.0488 207.944 50.3089H205.153C205.19 49.7961 205.353 49.3237 205.642 48.8916C205.935 48.4558 206.362 48.1078 206.922 47.8478C207.483 47.5841 208.182 47.4523 209.021 47.4523C209.625 47.4523 210.167 47.5237 210.647 47.6665C211.127 47.8057 211.535 48.0016 211.872 48.2543C212.209 48.5034 212.465 48.7963 212.641 49.1333C212.82 49.4665 212.91 49.8291 212.91 50.221V56H210.075V54.8134H210.01C209.841 55.1284 209.636 55.3829 209.394 55.577C209.156 55.7711 208.883 55.9121 208.576 56C208.272 56.0879 207.937 56.1318 207.57 56.1318ZM208.559 54.2201C208.79 54.2201 209.006 54.1725 209.208 54.0773C209.413 53.9821 209.579 53.8448 209.707 53.6653C209.836 53.4859 209.9 53.268 209.9 53.0116V52.3084C209.819 52.3414 209.733 52.3725 209.641 52.4018C209.554 52.4311 209.458 52.4586 209.356 52.4842C209.257 52.5099 209.151 52.5337 209.037 52.5557C208.927 52.5776 208.812 52.5978 208.691 52.6161C208.457 52.6527 208.264 52.7131 208.114 52.7974C207.968 52.8779 207.858 52.9786 207.785 53.0995C207.715 53.2167 207.68 53.3485 207.68 53.495C207.68 53.7294 207.763 53.9089 207.928 54.0334C208.092 54.1579 208.303 54.2201 208.559 54.2201ZM222.072 50.3089H219.281C219.266 50.1367 219.206 49.9884 219.1 49.8639C218.994 49.7394 218.856 49.6442 218.688 49.5782C218.523 49.5087 218.34 49.4739 218.138 49.4739C217.878 49.4739 217.655 49.5215 217.468 49.6167C217.281 49.7119 217.19 49.8474 217.194 50.0232C217.19 50.1477 217.243 50.2631 217.353 50.3693C217.466 50.4755 217.684 50.5579 218.007 50.6165L219.72 50.9241C220.585 51.0816 221.227 51.3471 221.649 51.7207C222.073 52.0905 222.288 52.5868 222.291 53.2094C222.288 53.81 222.108 54.3318 221.753 54.775C221.401 55.2144 220.92 55.555 220.308 55.7967C219.7 56.0348 219.006 56.1538 218.226 56.1538C216.937 56.1538 215.928 55.8901 215.199 55.3628C214.474 54.8354 214.07 54.1396 213.985 53.2753H216.996C217.036 53.5426 217.168 53.7495 217.391 53.896C217.618 54.0389 217.904 54.1103 218.248 54.1103C218.527 54.1103 218.755 54.0627 218.935 53.9674C219.118 53.8722 219.211 53.7367 219.215 53.5609C219.211 53.3998 219.131 53.2716 218.973 53.1764C218.82 53.0812 218.578 53.0043 218.248 52.9457L216.754 52.682C215.893 52.5318 215.249 52.2462 214.82 51.825C214.392 51.4039 214.179 50.8619 214.183 50.199C214.179 49.613 214.333 49.1168 214.645 48.7103C214.96 48.3001 215.408 47.9888 215.99 47.7764C216.576 47.5603 217.27 47.4523 218.072 47.4523C219.292 47.4523 220.253 47.705 220.956 48.2104C221.663 48.7158 222.035 49.4153 222.072 50.3089ZM227.496 56.1538C226.595 56.1538 225.819 55.9817 225.167 55.6374C224.519 55.2895 224.019 54.7915 223.667 54.1432C223.32 53.4914 223.146 52.7113 223.146 51.8031C223.146 50.9314 223.321 50.1697 223.673 49.5178C224.025 48.8659 224.521 48.3587 225.162 47.9961C225.803 47.6336 226.559 47.4523 227.43 47.4523C228.068 47.4523 228.644 47.5512 229.161 47.7489C229.677 47.9467 230.119 48.2342 230.485 48.6114C230.851 48.985 231.133 49.4391 231.331 49.9738C231.528 50.5085 231.627 51.1109 231.627 51.7811V52.4842H224.09V50.8143H228.837C228.833 50.5725 228.771 50.3601 228.65 50.177C228.533 49.9902 228.373 49.8456 228.172 49.743C227.974 49.6368 227.749 49.5837 227.496 49.5837C227.251 49.5837 227.026 49.6368 226.821 49.743C226.616 49.8456 226.451 49.9884 226.326 50.1715C226.205 50.3546 226.141 50.5689 226.134 50.8143V52.6161C226.134 52.8871 226.191 53.1288 226.304 53.3412C226.418 53.5536 226.581 53.7202 226.793 53.8411C227.006 53.962 227.262 54.0224 227.562 54.0224C227.771 54.0224 227.961 53.9931 228.134 53.9345C228.309 53.8759 228.46 53.7917 228.584 53.6818C228.709 53.5683 228.8 53.4328 228.859 53.2753H231.627C231.532 53.8612 231.307 54.3703 230.952 54.8024C230.596 55.2309 230.126 55.5642 229.54 55.8022C228.958 56.0366 228.276 56.1538 227.496 56.1538ZM236.93 56.1538C236.014 56.1538 235.231 55.9725 234.579 55.61C233.927 55.2437 233.427 54.7347 233.079 54.0828C232.731 53.4273 232.557 52.6674 232.557 51.8031C232.557 50.9388 232.731 50.1807 233.079 49.5288C233.427 48.8733 233.927 48.3642 234.579 48.0016C235.231 47.6354 236.014 47.4523 236.93 47.4523C237.845 47.4523 238.629 47.6354 239.281 48.0016C239.933 48.3642 240.433 48.8733 240.781 49.5288C241.129 50.1807 241.303 50.9388 241.303 51.8031C241.303 52.6674 241.129 53.4273 240.781 54.0828C240.433 54.7347 239.933 55.2437 239.281 55.61C238.629 55.9725 237.845 56.1538 236.93 56.1538ZM236.952 53.9125C237.208 53.9125 237.43 53.8265 237.617 53.6543C237.803 53.4822 237.948 53.2368 238.05 52.9182C238.153 52.5996 238.204 52.2206 238.204 51.7811C238.204 51.338 238.153 50.9589 238.05 50.644C237.948 50.3253 237.803 50.08 237.617 49.9078C237.43 49.7357 237.208 49.6497 236.952 49.6497C236.681 49.6497 236.448 49.7357 236.254 49.9078C236.06 50.08 235.912 50.3253 235.809 50.644C235.707 50.9589 235.655 51.338 235.655 51.7811C235.655 52.2206 235.707 52.5996 235.809 52.9182C235.912 53.2368 236.06 53.4822 236.254 53.6543C236.448 53.8265 236.681 53.9125 236.952 53.9125ZM245.565 51.2537V56H242.533V47.5622H245.412V49.1662H245.5C245.683 48.6315 246.005 48.2122 246.466 47.9083C246.931 47.6043 247.473 47.4523 248.092 47.4523C248.689 47.4523 249.208 47.5896 249.647 47.8643C250.09 48.1353 250.433 48.5089 250.674 48.985C250.92 49.461 251.041 50.0049 251.037 50.6165V56H248.005V51.2537C248.008 50.8362 247.902 50.5085 247.686 50.2704C247.473 50.0324 247.177 49.9133 246.796 49.9133C246.547 49.9133 246.329 49.9683 246.142 50.0781C245.959 50.1843 245.818 50.3382 245.719 50.5396C245.62 50.7373 245.569 50.9754 245.565 51.2537ZM256.599 59.34C255.753 59.34 255.028 59.2191 254.424 58.9774C253.823 58.7394 253.356 58.4098 253.023 57.9886C252.693 57.5711 252.508 57.0914 252.468 56.5493H255.39C255.42 56.7288 255.493 56.8734 255.61 56.9833C255.727 57.0932 255.877 57.1719 256.061 57.2195C256.247 57.2708 256.456 57.2964 256.687 57.2964C257.079 57.2964 257.403 57.2012 257.659 57.0108C257.919 56.8203 258.049 56.4761 258.049 55.978V54.5497H257.961C257.851 54.8354 257.683 55.0789 257.456 55.2804C257.229 55.4781 256.956 55.6301 256.637 55.7363C256.319 55.8389 255.969 55.8901 255.588 55.8901C254.987 55.8901 254.434 55.751 253.929 55.4726C253.427 55.1943 253.025 54.753 252.721 54.1487C252.42 53.5445 252.27 52.7552 252.27 51.7811C252.27 50.763 252.428 49.9353 252.743 49.2981C253.061 48.6608 253.471 48.1939 253.973 47.8973C254.478 47.6006 255.009 47.4523 255.566 47.4523C255.984 47.4523 256.35 47.5255 256.665 47.672C256.98 47.8149 257.243 48.0071 257.456 48.2488C257.668 48.4869 257.829 48.7487 257.939 49.0344H258.005V47.5622H261.038V55.978C261.038 56.6922 260.853 57.2983 260.483 57.7963C260.116 58.2981 259.6 58.6808 258.934 58.9445C258.267 59.2081 257.489 59.34 256.599 59.34ZM256.709 53.7367C256.987 53.7367 257.225 53.6598 257.423 53.506C257.624 53.3485 257.778 53.1251 257.884 52.8358C257.994 52.5428 258.049 52.1913 258.049 51.7811C258.049 51.3636 257.994 51.0065 257.884 50.7099C257.778 50.4096 257.624 50.1807 257.423 50.0232C257.225 49.8621 256.987 49.7815 256.709 49.7815C256.43 49.7815 256.192 49.8621 255.995 50.0232C255.801 50.1807 255.65 50.4096 255.544 50.7099C255.442 51.0065 255.39 51.3636 255.39 51.7811C255.39 52.1986 255.442 52.5538 255.544 52.8468C255.65 53.1361 255.801 53.3577 255.995 53.5115C256.192 53.6617 256.43 53.7367 256.709 53.7367ZM265.618 56V44.7496H270.474C271.309 44.7496 272.039 44.9144 272.666 45.244C273.292 45.5736 273.779 46.0368 274.127 46.6338C274.475 47.2307 274.649 47.9284 274.649 48.7268C274.649 49.5325 274.469 50.2301 274.11 50.8197C273.755 51.4094 273.255 51.8635 272.611 52.1821C271.97 52.5007 271.221 52.66 270.364 52.66H267.463V50.2869H269.749C270.108 50.2869 270.413 50.2246 270.666 50.1001C270.922 49.9719 271.118 49.7907 271.254 49.5563C271.393 49.3219 271.463 49.0454 271.463 48.7268C271.463 48.4045 271.393 48.1298 271.254 47.9028C271.118 47.672 270.922 47.4962 270.666 47.3754C270.413 47.2509 270.108 47.1886 269.749 47.1886H268.672V56H265.618ZM277.787 56.1318C277.248 56.1318 276.772 56.0439 276.359 55.8682C275.948 55.6887 275.626 55.4177 275.392 55.0551C275.157 54.6926 275.04 54.2311 275.04 53.6708C275.04 53.2094 275.119 52.8157 275.276 52.4897C275.434 52.1601 275.654 51.891 275.936 51.6822C276.218 51.4735 276.545 51.3141 276.919 51.2043C277.296 51.0944 277.703 51.023 278.138 50.99C278.611 50.9534 278.99 50.9095 279.276 50.8582C279.565 50.8033 279.774 50.7282 279.902 50.633C280.03 50.5341 280.094 50.4041 280.094 50.2429V50.221C280.094 50.0012 280.01 49.8328 279.841 49.7156C279.673 49.5984 279.457 49.5398 279.193 49.5398C278.904 49.5398 278.668 49.6039 278.485 49.7321C278.305 49.8566 278.197 50.0488 278.16 50.3089H275.37C275.406 49.7961 275.569 49.3237 275.859 48.8916C276.152 48.4558 276.578 48.1078 277.139 47.8478C277.699 47.5841 278.398 47.4523 279.237 47.4523C279.841 47.4523 280.383 47.5237 280.863 47.6665C281.343 47.8057 281.751 48.0016 282.088 48.2543C282.425 48.5034 282.681 48.7963 282.857 49.1333C283.037 49.4665 283.126 49.8291 283.126 50.221V56H280.292V54.8134H280.226C280.057 55.1284 279.852 55.3829 279.611 55.577C279.373 55.7711 279.1 55.9121 278.792 56C278.488 56.0879 278.153 56.1318 277.787 56.1318ZM278.776 54.2201C279.006 54.2201 279.222 54.1725 279.424 54.0773C279.629 53.9821 279.796 53.8448 279.924 53.6653C280.052 53.4859 280.116 53.268 280.116 53.0116V52.3084C280.035 52.3414 279.949 52.3725 279.858 52.4018C279.77 52.4311 279.675 52.4586 279.572 52.4842C279.473 52.5099 279.367 52.5337 279.254 52.5557C279.144 52.5776 279.028 52.5978 278.907 52.6161C278.673 52.6527 278.481 52.7131 278.331 52.7974C278.184 52.8779 278.074 52.9786 278.001 53.0995C277.932 53.2167 277.897 53.3485 277.897 53.495C277.897 53.7294 277.979 53.9089 278.144 54.0334C278.309 54.1579 278.519 54.2201 278.776 54.2201ZM284.575 56V47.5622H287.52V49.1662H287.608C287.761 48.573 288.005 48.139 288.338 47.8643C288.675 47.5896 289.069 47.4523 289.519 47.4523C289.651 47.4523 289.781 47.4633 289.909 47.4853C290.041 47.5036 290.168 47.531 290.288 47.5677V50.155C290.138 50.1038 289.953 50.0653 289.734 50.0397C289.514 50.014 289.325 50.0012 289.168 50.0012C288.871 50.0012 288.604 50.069 288.366 50.2045C288.131 50.3363 287.946 50.5231 287.811 50.7648C287.675 51.0029 287.608 51.283 287.608 51.6053V56H284.575ZM294.007 54.0004L294.029 50.3968H294.425L296.468 47.5622H299.874L296.446 51.9788H295.59L294.007 54.0004ZM291.283 56V44.7496H294.315V56H291.283ZM296.49 56L294.557 52.66L296.534 50.5066L299.962 56H296.49Z" fill="black"/>
<path d="M195.993 24.0521H198.05V32.6376H195.993V24.0521ZM197.493 27.5173H199.953V29.2034H197.493V27.5173ZM188.49 33.2719H198.05V38.3768H195.993V34.8962H188.49V33.2719ZM187.191 24.9339H189.233V26.8366H192.048V24.9339H194.074V31.9106H187.191V24.9339ZM189.233 28.4145V30.3018H192.048V28.4145H189.233ZM210.161 24.0212H212.234V38.3922H210.161V24.0212ZM211.786 29.3272H214.307V31.0288H211.786V29.3272ZM201.56 33.2564H202.767C203.582 33.2564 204.345 33.2461 205.056 33.2255C205.768 33.1945 206.459 33.1481 207.129 33.0863C207.8 33.0141 208.485 32.9161 209.187 32.7923L209.388 34.494C208.666 34.6177 207.954 34.7157 207.253 34.7879C206.562 34.8601 205.851 34.9065 205.118 34.9271C204.386 34.9477 203.602 34.958 202.767 34.958H201.56V33.2564ZM201.56 25.3516H208.243V27.0068H203.618V34.0608H201.56V25.3516ZM218.575 24.7947H220.277V26.0632C220.277 27.0223 220.128 27.9246 219.828 28.7703C219.54 29.616 219.096 30.3533 218.498 30.9824C217.9 31.6115 217.132 32.0859 216.193 32.4056L215.11 30.7504C215.935 30.4926 216.601 30.1213 217.106 29.6366C217.611 29.1519 217.982 28.6001 218.22 27.9814C218.457 27.3626 218.575 26.7232 218.575 26.0632V24.7947ZM218.993 24.7947H220.664V25.9703C220.664 26.5994 220.772 27.2079 220.989 27.7957C221.205 28.3733 221.551 28.8889 222.025 29.3427C222.5 29.7861 223.113 30.1316 223.866 30.3791L222.799 31.9879C221.922 31.6785 221.2 31.2299 220.633 30.6421C220.076 30.0543 219.663 29.3633 219.395 28.5692C219.127 27.7648 218.993 26.8985 218.993 25.9703V24.7947ZM225.165 24.0521H227.238V32.4365H225.165V24.0521ZM222.381 32.8078C223.897 32.8078 225.093 33.0553 225.97 33.5503C226.846 34.035 227.285 34.7105 227.285 35.5768C227.285 36.4637 226.846 37.1495 225.97 37.6342C225.093 38.1293 223.897 38.3768 222.381 38.3768C220.865 38.3768 219.669 38.1293 218.792 37.6342C217.915 37.1495 217.477 36.4637 217.477 35.5768C217.477 34.7105 217.915 34.035 218.792 33.5503C219.669 33.0553 220.865 32.8078 222.381 32.8078ZM222.381 34.4011C221.762 34.4011 221.241 34.4424 220.819 34.5249C220.396 34.6074 220.071 34.7415 219.844 34.9271C219.627 35.1024 219.519 35.319 219.519 35.5768C219.519 35.845 219.627 36.0718 219.844 36.2575C220.071 36.4328 220.396 36.5669 220.819 36.6597C221.241 36.7422 221.762 36.7834 222.381 36.7834C223 36.7834 223.52 36.7422 223.943 36.6597C224.366 36.5669 224.686 36.4328 224.902 36.2575C225.119 36.0718 225.227 35.845 225.227 35.5768C225.227 35.319 225.119 35.1024 224.902 34.9271C224.686 34.7415 224.366 34.6074 223.943 34.5249C223.52 34.4424 223 34.4011 222.381 34.4011ZM222.551 26.651H225.475V28.3217H222.551V26.651Z" fill="black"/>
</svg>
